<svg width="39" height="38" viewBox="0 0 39 38" fill="none" xmlns="http://www.w3.org/2000/svg">
<path fill-rule="evenodd" clip-rule="evenodd" d="M32.9729 11.0859C32.9729 11.7418 32.4412 12.2734 31.7854 12.2734H6.45203C5.79619 12.2734 5.26453 11.7418 5.26453 11.0859C5.26453 10.4301 5.79619 9.89844 6.45203 9.89844H31.7854C32.4412 9.89844 32.9729 10.4301 32.9729 11.0859Z" fill="white"/>
<path fill-rule="evenodd" clip-rule="evenodd" d="M32.9729 19C32.9729 19.6558 32.4412 20.1875 31.7854 20.1875H6.45203C5.79619 20.1875 5.26453 19.6558 5.26453 19C5.26453 18.3442 5.79619 17.8125 6.45203 17.8125H31.7854C32.4412 17.8125 32.9729 18.3442 32.9729 19Z" fill="white"/>
<path fill-rule="evenodd" clip-rule="evenodd" d="M32.9729 26.9141C32.9729 27.5699 32.4412 28.1016 31.7854 28.1016H6.45203C5.79619 28.1016 5.26453 27.5699 5.26453 26.9141C5.26453 26.2582 5.79619 25.7266 6.45203 25.7266H31.7854C32.4412 25.7266 32.9729 26.2582 32.9729 26.9141Z" fill="white"/>
</svg>
