<svg width="43" height="42" viewBox="0 0 43 42" fill="none" xmlns="http://www.w3.org/2000/svg">
<path d="M7.0625 17.3906V36.75C7.0625 37.0981 7.20078 37.4319 7.44692 37.6781C7.69306 37.9242 8.0269 38.0625 8.375 38.0625H16.25V26.9062C16.25 26.3841 16.4574 25.8833 16.8266 25.5141C17.1958 25.1449 17.6966 24.9375 18.2188 24.9375H24.7812C25.3034 24.9375 25.8042 25.1449 26.1734 25.5141C26.5426 25.8833 26.75 26.3841 26.75 26.9062V38.0625H34.625C34.9731 38.0625 35.3069 37.9242 35.5531 37.6781C35.7992 37.4319 35.9375 37.0981 35.9375 36.75V17.3906" stroke="#CEA44E" stroke-width="1.4375" stroke-linecap="round" stroke-linejoin="round"/>
<path d="M39.875 20.9986L22.3933 4.26419C21.9832 3.83107 21.0242 3.82615 20.6067 4.26419L3.125 20.9986M33.3125 14.6822V5.24857H29.375V10.9087" stroke="#CEA44E" stroke-width="1.4375" stroke-linecap="round" stroke-linejoin="round"/>
</svg>
