<svg width="38" height="29" viewBox="0 0 38 29" fill="none" xmlns="http://www.w3.org/2000/svg">
<g clip-path="url(#clip0_1_1856)">
<path d="M37.2949 1.90427C37.2949 2.17596 37.1869 2.43652 36.9948 2.62863C36.8027 2.82074 36.5422 2.92866 36.2705 2.92866C35.9988 2.92866 35.7382 2.82074 35.5461 2.62863C35.354 2.43652 35.2461 2.17596 35.2461 1.90427C35.2461 1.63259 35.354 1.37203 35.5461 1.17992C35.7382 0.987809 35.9988 0.879883 36.2705 0.879883C36.5422 0.879883 36.8027 0.987809 36.9948 1.17992C37.1869 1.37203 37.2949 1.63259 37.2949 1.90427Z" fill="#CCCCCC"/>
<path fill-rule="evenodd" clip-rule="evenodd" d="M9.80821 28.736C4.62207 28.736 0.417969 24.5319 0.417969 19.3457V1.55957H3.8326V19.3457C3.8326 20.9305 4.46217 22.4505 5.58282 23.5711C6.70346 24.6918 8.22338 25.3213 9.80821 25.3213C13.1498 25.3213 15.7838 22.746 15.7838 19.4864H19.1985V24.6084C19.1985 24.8348 19.2884 25.0519 19.4485 25.212C19.6086 25.3721 19.8257 25.462 20.0521 25.462C20.2785 25.462 20.4956 25.3721 20.6557 25.212C20.8158 25.0519 20.9058 24.8348 20.9058 24.6084V18.5474C20.2856 18.674 19.6449 18.661 19.0303 18.5095C18.4158 18.358 17.8426 18.0716 17.3523 17.6712C16.862 17.2709 16.4669 16.7664 16.1956 16.1945C15.9244 15.6226 15.7837 14.9975 15.7838 14.3644V5.82786C15.7838 4.69584 16.2335 3.61018 17.034 2.80972C17.8344 2.00926 18.9201 1.55957 20.0521 1.55957C21.1841 1.55957 22.2698 2.00926 23.0703 2.80972C23.8707 3.61018 24.3204 4.69584 24.3204 5.82786V24.6084C24.3204 24.8348 24.4103 25.0519 24.5704 25.212C24.7305 25.3721 24.9477 25.462 25.1741 25.462C25.4005 25.462 25.6176 25.3721 25.7777 25.212C25.9378 25.0519 26.0277 24.8348 26.0277 24.6084V5.82786C26.0277 4.69584 26.4774 3.61018 27.2779 2.80972C28.0783 2.00926 29.164 1.55957 30.296 1.55957C31.428 1.55957 32.5137 2.00926 33.3142 2.80972C34.1146 3.61018 34.5643 4.69584 34.5643 5.82786V24.6084C34.5643 25.401 34.3436 26.178 33.9268 26.8523C33.5101 27.5266 32.9138 28.0715 32.2049 28.426C31.4959 28.7805 30.7022 28.9306 29.9127 28.8594C29.1232 28.7882 28.3692 28.4986 27.735 28.023C26.9969 28.5783 26.0978 28.878 25.1741 28.8766C24.2503 28.878 23.3513 28.5783 22.6131 28.023C22.0994 28.4082 21.5054 28.6726 20.8753 28.7965C20.2453 28.9203 19.5954 28.9005 18.9741 28.7383C18.3528 28.5762 17.776 28.276 17.2868 27.8601C16.7976 27.4442 16.4085 26.9233 16.1485 26.3362C14.4712 27.8365 12.2401 28.736 9.80821 28.736ZM30.296 25.462C29.8248 25.462 29.4424 25.0796 29.4424 24.6084V5.82786C29.4424 5.60146 29.5323 5.38433 29.6924 5.22424C29.8525 5.06414 30.0696 4.9742 30.296 4.9742C30.5224 4.9742 30.7396 5.06414 30.8996 5.22424C31.0597 5.38433 31.1497 5.60146 31.1497 5.82786V24.6084C31.1497 25.0796 30.7672 25.462 30.296 25.462ZM20.9058 14.3644C20.9058 14.5909 20.8158 14.808 20.6557 14.9681C20.4956 15.1282 20.2785 15.2181 20.0521 15.2181C19.8257 15.2181 19.6086 15.1282 19.4485 14.9681C19.2884 14.808 19.1985 14.5909 19.1985 14.3644V5.82786C19.1985 5.60146 19.2884 5.38433 19.4485 5.22424C19.6086 5.06414 19.8257 4.9742 20.0521 4.9742C20.2785 4.9742 20.4956 5.06414 20.6557 5.22424C20.8158 5.38433 20.9058 5.60146 20.9058 5.82786V14.3644Z" fill="#CCCCCC"/>
<path fill-rule="evenodd" clip-rule="evenodd" d="M5.54297 19.4864C5.54297 20.6184 5.99266 21.7041 6.79312 22.5045C7.59358 23.305 8.67924 23.7547 9.81126 23.7547C10.9433 23.7547 12.0289 23.305 12.8294 22.5045C13.6299 21.7041 14.0796 20.6184 14.0796 19.4864V5.82786C14.0796 4.69584 13.6299 3.61018 12.8294 2.80972C12.0289 2.00926 10.9433 1.55957 9.81126 1.55957C8.67924 1.55957 7.59358 2.00926 6.79312 2.80972C5.99266 3.61018 5.54297 4.69584 5.54297 5.82786V19.4864ZM9.81126 20.3401C9.34004 20.3401 8.9576 19.9576 8.9576 19.4864V5.82786C8.9576 5.60146 9.04754 5.38433 9.20763 5.22424C9.36773 5.06414 9.58486 4.9742 9.81126 4.9742C10.0377 4.9742 10.2548 5.06414 10.4149 5.22424C10.575 5.38433 10.6649 5.60146 10.6649 5.82786V19.4864C10.6649 19.9576 10.2825 20.3401 9.81126 20.3401Z" fill="#CCCCCC"/>
</g>
<defs>
<clipPath id="clip0_1_1856">
<rect width="36.878" height="28" fill="white" transform="translate(0.417969 0.879883)"/>
</clipPath>
</defs>
</svg>
