<svg width="163" height="29" viewBox="0 0 163 29" fill="none" xmlns="http://www.w3.org/2000/svg">
<g clip-path="url(#clip0_1_1860)">
<path d="M27.6601 28.8064V1.48926H12.9118L0.343024 14.0581L0.343018 28.8064H27.6601Z" fill="#222222"/>
<path fill-rule="evenodd" clip-rule="evenodd" d="M13.5338 19.6185V27.8677L7.88208 27.8677V17.2775L16.1312 9.02832H26.7214V14.6802H18.4723L13.5338 19.6185Z" fill="#CCCCCC"/>
<path fill-rule="evenodd" clip-rule="evenodd" d="M6.94014 16.7926V27.8677L1.28833 27.8677L1.28834 14.4516L13.3054 2.43457H26.7215V8.08636H15.6464L6.94014 16.7926Z" fill="#CCCCCC"/>
<path fill-rule="evenodd" clip-rule="evenodd" d="M20.1277 22.4444V27.8677H14.4758V20.1034L18.9571 15.6221H26.7215V21.2739H21.2982L20.1277 22.4444Z" fill="#CCCCCC"/>
<path d="M95.1633 11.2549V23.6548H98.8231V11.2549H95.1633Z" fill="#CCCCCC"/>
<path d="M95.0383 5.66113V9.59998H98.9419V5.66113H95.0383Z" fill="#CCCCCC"/>
<path fill-rule="evenodd" clip-rule="evenodd" d="M108.837 23.899C107.65 23.899 106.698 23.6234 105.983 23.0723C105.481 22.686 105.123 22.1999 104.909 21.6145V28.6401H101.249V11.2559H104.835V13.2457C105.089 12.667 105.503 12.1902 106.08 11.8151C106.877 11.2802 107.861 11.0127 109.033 11.0127C110.155 11.0127 111.122 11.2802 111.936 11.8151C112.765 12.3337 113.4 13.0713 113.839 14.0276C114.295 14.9839 114.522 16.1105 114.522 17.4072C114.522 18.7202 114.286 19.8629 113.814 20.8354C113.343 21.808 112.684 22.5617 111.838 23.0966C110.993 23.6315 109.992 23.899 108.837 23.899ZM107.812 20.9813C108.675 20.9813 109.374 20.6734 109.911 20.0574C110.448 19.4414 110.716 18.5661 110.716 17.4315C110.716 16.2969 110.439 15.4297 109.886 14.83C109.349 14.2302 108.642 13.9304 107.764 13.9304C106.918 13.9304 106.218 14.2384 105.665 14.8543C105.128 15.454 104.86 16.3212 104.86 17.4558C104.86 18.5905 105.128 19.4658 105.665 20.0817C106.218 20.6815 106.934 20.9813 107.812 20.9813Z" fill="#CCCCCC"/>
<path d="M116.834 22.8049C117.907 23.5343 119.355 23.899 121.177 23.899C122.917 23.899 124.259 23.5667 125.202 22.9021C126.163 22.2213 126.642 21.2731 126.642 20.0574C126.642 19.1011 126.317 18.2745 125.666 17.5774C125.032 16.8642 124.089 16.378 122.836 16.1186L120.591 15.6566C119.99 15.527 119.559 15.381 119.299 15.219C119.038 15.0407 118.908 14.8057 118.908 14.5139C118.908 14.1735 119.062 13.9142 119.372 13.7359C119.697 13.5413 120.185 13.4441 120.835 13.4441C121.551 13.4441 122.104 13.5576 122.495 13.7845C122.885 13.9952 123.113 14.3113 123.178 14.7327H126.447C126.35 13.5657 125.813 12.6579 124.837 12.0096C123.861 11.345 122.551 11.0127 120.909 11.0127C119.249 11.0127 117.957 11.3531 117.029 12.0339C116.102 12.6984 115.639 13.6305 115.639 14.83C115.639 15.8187 115.988 16.6292 116.688 17.2613C117.387 17.8773 118.477 18.3392 119.957 18.6472L121.958 19.0606C122.495 19.174 122.861 19.3199 123.055 19.4982C123.267 19.6603 123.373 19.8953 123.373 20.2033C123.373 20.6085 123.194 20.9246 122.836 21.1515C122.495 21.3622 121.941 21.4676 121.177 21.4676C120.331 21.4676 119.664 21.3298 119.176 21.0542C118.704 20.7625 118.428 20.3411 118.347 19.7899H115.077C115.175 21.0705 115.76 22.0754 116.834 22.8049Z" fill="#CCCCCC"/>
<path d="M142.437 11.2559H146.023V13.5188C146.409 12.8352 146.913 12.2754 147.536 11.8394C148.317 11.2883 149.252 11.0127 150.342 11.0127C151.643 11.0127 152.652 11.3774 153.368 12.1069C153.751 12.4888 154.034 12.9217 154.217 13.4059C154.598 12.7733 155.096 12.2511 155.71 11.8394C156.523 11.2883 157.499 11.0127 158.638 11.0127C159.988 11.0127 161.021 11.3936 161.736 12.1554C162.468 12.9011 162.834 13.8817 162.834 15.0974V23.6558H159.175V15.7782C159.175 15.146 159.004 14.6841 158.662 14.3923C158.337 14.0844 157.874 13.9304 157.271 13.9304C156.751 13.9304 156.271 14.0519 155.832 14.2951C155.409 14.522 155.076 14.8543 154.832 15.2919C154.587 15.7133 154.466 16.2158 154.466 16.7994V23.6558H150.806V15.7782C150.806 15.146 150.635 14.6841 150.293 14.3923C149.968 14.0844 149.504 13.9304 148.903 13.9304C148.382 13.9304 147.902 14.0519 147.463 14.2951C147.04 14.522 146.707 14.8543 146.463 15.2919C146.219 15.7133 146.097 16.2158 146.097 16.7994V23.6558H142.437V11.2559Z" fill="#CCCCCC"/>
<path d="M132.031 23.898C131.152 23.898 130.396 23.7116 129.761 23.3388C129.143 22.9497 128.672 22.4392 128.346 21.8071C128.021 21.1586 127.859 20.4374 127.859 19.6431V11.2549H131.518V18.938C131.518 19.6188 131.689 20.1294 132.031 20.4698C132.372 20.8101 132.852 20.9803 133.47 20.9803C134.023 20.9803 134.511 20.8507 134.934 20.5913C135.357 20.332 135.69 19.9754 135.934 19.5215C136.194 19.0515 136.325 18.5166 136.325 17.9168V11.2549H139.985V23.6549H136.398V21.3831C136.01 22.0591 135.498 22.6219 134.861 23.0714C134.08 23.6224 133.137 23.898 132.031 23.898Z" fill="#CCCCCC"/>
<path fill-rule="evenodd" clip-rule="evenodd" d="M86.8719 23.899C85.5054 23.899 84.3021 23.6315 83.2613 23.0966C82.2362 22.5455 81.4311 21.7837 80.8458 20.8111C80.2762 19.8224 79.9915 18.6877 79.9915 17.4072C79.9915 16.1267 80.2762 15.0083 80.8458 14.0519C81.4311 13.0956 82.2362 12.35 83.2613 11.8151C84.3021 11.2802 85.5054 11.0127 86.8719 11.0127C88.2549 11.0127 89.4582 11.2802 90.4833 11.8151C91.524 12.35 92.3292 13.0956 92.8988 14.0519C93.4677 15.0083 93.7524 16.1267 93.7524 17.4072C93.7524 18.6877 93.4594 19.8224 92.8742 20.8111C92.3046 21.7837 91.4995 22.5455 90.4587 23.0966C89.4343 23.6315 88.2385 23.899 86.8719 23.899ZM86.8719 21.0299C87.4415 21.0299 87.9537 20.8841 88.4092 20.5923C88.8811 20.3005 89.2554 19.8872 89.5313 19.3523C89.8078 18.8012 89.9465 18.1447 89.9465 17.3829C89.9465 16.2645 89.6453 15.4054 89.0436 14.8057C88.4577 14.1897 87.7345 13.8817 86.8719 13.8817C86.0101 13.8817 85.278 14.1897 84.6763 14.8057C84.0904 15.4216 83.7981 16.2807 83.7981 17.3829C83.7981 18.1447 83.936 18.8012 84.2126 19.3523C84.4892 19.8872 84.8553 20.3005 85.3108 20.5923C85.782 20.8841 86.3031 21.0299 86.8719 21.0299Z" fill="#CCCCCC"/>
<path fill-rule="evenodd" clip-rule="evenodd" d="M67.6481 27.7891C68.7382 28.5186 70.145 28.8833 71.8694 28.8833C73.9352 28.8833 75.5613 28.3646 76.7489 27.3272C77.9365 26.306 78.53 24.9039 78.53 23.1209V11.2559H74.9432V13.3765C74.7267 12.7554 74.345 12.2431 73.7966 11.8394C73.0645 11.2883 72.1132 11.0127 70.942 11.0127C69.8035 11.0127 68.803 11.2721 67.9409 11.7908C67.0951 12.3094 66.4364 13.0389 65.9646 13.979C65.493 14.9192 65.2571 16.0213 65.2571 17.2857C65.2571 18.5338 65.4848 19.6198 65.9403 20.5437C66.3957 21.4676 67.03 22.1889 67.8433 22.7075C68.6726 23.21 69.641 23.4613 70.7467 23.4613C71.9015 23.4613 72.8692 23.202 73.6505 22.6833C74.2234 22.2905 74.6305 21.7973 74.8702 21.2037V23.1695C74.8702 24.061 74.6182 24.7175 74.1142 25.139C73.6095 25.5604 72.8043 25.7712 71.6986 25.7712C71.0314 25.7712 70.4783 25.6901 70.0391 25.528C69.6164 25.3659 69.3398 25.1308 69.2094 24.8229H65.745C65.9403 26.071 66.5746 27.0598 67.6481 27.7891ZM74.1142 19.7899C73.5774 20.3735 72.8774 20.6653 72.0155 20.6653C71.1373 20.6653 70.4216 20.3735 69.8684 19.7899C69.3316 19.2065 69.0632 18.3636 69.0632 17.2613C69.0632 16.1591 69.3316 15.3082 69.8684 14.7084C70.4216 14.1087 71.1209 13.8088 71.967 13.8088C72.8453 13.8088 73.5528 14.1087 74.0896 14.7084C74.6427 15.2919 74.9193 16.1348 74.9193 17.237C74.9193 18.3392 74.6509 19.1902 74.1142 19.7899Z" fill="#CCCCCC"/>
<path fill-rule="evenodd" clip-rule="evenodd" d="M57.6844 23.899C56.3181 23.899 55.1145 23.6315 54.0734 23.0966C53.0487 22.5455 52.2435 21.7837 51.658 20.8111C51.0886 19.8224 50.804 18.6877 50.804 17.4072C50.804 16.1267 51.0886 15.0083 51.658 14.0519C52.2435 13.0956 53.0487 12.35 54.0734 11.8151C55.1145 11.2802 56.3181 11.0127 57.6844 11.0127C59.0671 11.0127 60.2708 11.2802 61.2955 11.8151C62.3365 12.35 63.1416 13.0956 63.7109 14.0519C64.2803 15.0083 64.5649 16.1267 64.5649 17.4072C64.5649 18.6877 64.2722 19.8224 63.6866 20.8111C63.1173 21.7837 62.3121 22.5455 61.2711 23.0966C60.2463 23.6315 59.0508 23.899 57.6844 23.899ZM57.6844 21.0299C58.2538 21.0299 58.7661 20.8841 59.2216 20.5923C59.6933 20.3005 60.0674 19.8872 60.344 19.3523C60.6204 18.8012 60.7587 18.1447 60.7587 17.3829C60.7587 16.2645 60.4578 15.4054 59.8559 14.8057C59.2703 14.1897 58.5466 13.8817 57.6844 13.8817C56.8224 13.8817 56.0904 14.1897 55.4886 14.8057C54.903 15.4216 54.6102 16.2807 54.6102 17.3829C54.6102 18.1447 54.7485 18.8012 55.025 19.3523C55.3015 19.8872 55.6675 20.3005 56.1229 20.5923C56.5946 20.8841 57.1152 21.0299 57.6844 21.0299Z" fill="#CCCCCC"/>
<path d="M38.5383 6.14551V23.6513H50.7377V20.7823H42.2957V6.14551H38.5383Z" fill="#CCCCCC"/>
</g>
<defs>
<clipPath id="clip0_1_1860">
<rect width="162.537" height="28" fill="white" transform="translate(0.296143 0.879883)"/>
</clipPath>
</defs>
</svg>
