<svg width="153" height="29" viewBox="0 0 153 29" fill="none" xmlns="http://www.w3.org/2000/svg">
<g clip-path="url(#clip0_1_1827)">
<path d="M85.8665 21.5477H89.1306V9.23567H85.8665V21.5477ZM85.8665 7.3157H89.1306V4.3877H85.8665V7.3157Z" fill="#CCCCCC"/>
<path d="M91.2336 25.5755H94.4977V20.1515H94.5453C95.2411 21.2075 96.3695 21.9035 98.0971 21.9035C101.265 21.9035 103.426 19.3835 103.426 15.3996C103.426 11.5595 101.337 8.89551 98.0734 8.89551C96.3934 8.89551 95.2411 9.68756 94.4494 10.7675H94.3774V9.23151H91.2336V25.5755ZM97.4013 19.1915C95.4574 19.1915 94.4256 17.7275 94.4256 15.4955C94.4256 13.2875 95.2411 11.5356 97.2816 11.5356C99.2976 11.5356 100.113 13.1675 100.113 15.4955C100.113 17.8235 99.0575 19.1915 97.4013 19.1915Z" fill="#CCCCCC"/>
<path d="M109.939 21.9035C113.011 21.9035 115.123 20.4155 115.123 17.9435C115.123 15.0636 112.843 14.4875 110.779 14.0556C109.026 13.6955 107.395 13.5995 107.395 12.5436C107.395 11.6555 108.235 11.1755 109.507 11.1755C110.899 11.1755 111.739 11.6555 111.882 12.9755H114.834C114.595 10.5035 112.795 8.89551 109.555 8.89551C106.747 8.89551 104.539 10.1675 104.539 12.8315C104.539 15.5195 106.699 16.1195 108.907 16.5515C110.587 16.8875 112.146 17.0075 112.146 18.1835C112.146 19.0475 111.331 19.5996 109.891 19.5996C108.427 19.5996 107.419 18.9755 107.203 17.5595H104.179C104.371 20.1755 106.363 21.9035 109.939 21.9035Z" fill="#CCCCCC"/>
<path d="M127.515 21.5435V9.23145H124.251V16.3355C124.251 17.9674 123.315 19.1194 121.779 19.1194C120.387 19.1194 119.74 18.3275 119.74 16.8875V9.23145H116.499V17.4394C116.499 20.1274 118.035 21.8795 120.771 21.8795C122.5 21.8795 123.459 21.2315 124.299 20.1035H124.371V21.5435H127.515Z" fill="#CCCCCC"/>
<path d="M129.624 21.5435H132.888V14.3916C132.888 12.7595 133.777 11.7036 135.097 11.7036C136.297 11.7036 136.992 12.4235 136.992 13.8155V21.5435H140.257V14.3916C140.257 12.7595 141.097 11.7036 142.464 11.7036C143.665 11.7036 144.361 12.4235 144.361 13.8155V21.5435H147.625V13.2635C147.625 10.5755 146.16 8.89551 143.568 8.89551C142.009 8.89551 140.712 9.7115 139.872 11.0555H139.825C139.225 9.75952 137.977 8.89551 136.416 8.89551C134.713 8.89551 133.513 9.75952 132.841 10.8875H132.769V9.23151H129.624V21.5435Z" fill="#CCCCCC"/>
<path d="M0.796143 21.5477H4.06014V4.3877H0.796143V21.5477Z" fill="#CCCCCC"/>
<path d="M12.0407 21.9035C15.8567 21.9035 18.4726 19.0715 18.4726 15.3996C18.4726 11.7275 15.8567 8.89551 12.0407 8.89551C8.22463 8.89551 5.60864 11.7275 5.60864 15.3996C5.60864 19.0715 8.22463 21.9035 12.0407 21.9035ZM12.0407 19.4075C10.0247 19.4075 8.92064 17.7995 8.92064 15.3996C8.92064 12.9995 10.0247 11.3676 12.0407 11.3676C14.0327 11.3676 15.1606 12.9995 15.1606 15.3996C15.1606 17.7995 14.0327 19.4075 12.0407 19.4075Z" fill="#CCCCCC"/>
<path d="M25.4139 25.7435C27.2379 25.7435 28.8219 25.3116 29.8538 24.3515C30.7659 23.5115 31.3179 22.3355 31.3179 20.6076V9.23151H28.1739V10.5276H28.1259C27.3819 9.49555 26.2539 8.89551 24.7179 8.89551C21.5979 8.89551 19.3899 11.2475 19.3899 14.9195C19.3899 18.6395 22.0779 20.7995 24.8139 20.7995C26.3739 20.7995 27.3099 20.1755 28.0299 19.3595H28.1019V20.7035C28.1019 22.3835 27.2139 23.2715 25.3659 23.2715C23.8539 23.2715 23.1579 22.6715 22.8939 21.9035H19.6539C19.9899 24.3036 22.0539 25.7435 25.4139 25.7435ZM25.3659 18.1835C23.6859 18.1835 22.5819 16.9595 22.5819 14.8715C22.5819 12.8075 23.6859 11.5115 25.3419 11.5115C27.3099 11.5115 28.2699 13.0476 28.2699 14.8475C28.2699 16.6715 27.4299 18.1835 25.3659 18.1835Z" fill="#CCCCCC"/>
<path d="M39.2516 21.9035C43.0676 21.9035 45.6836 19.0715 45.6836 15.3996C45.6836 11.7275 43.0676 8.89551 39.2516 8.89551C35.4356 8.89551 32.8196 11.7275 32.8196 15.3996C32.8196 19.0715 35.4356 21.9035 39.2516 21.9035ZM39.2516 19.4075C37.2356 19.4075 36.1316 17.7995 36.1316 15.3996C36.1316 12.9995 37.2356 11.3676 39.2516 11.3676C41.2436 11.3676 42.3716 12.9995 42.3716 15.3996C42.3716 17.7995 41.2436 19.4075 39.2516 19.4075Z" fill="#CCCCCC"/>
<path d="M148.812 7.21582C148.812 6.66353 149.26 6.21582 149.812 6.21582H151.812C152.364 6.21582 152.812 6.66353 152.812 7.21582C152.812 7.76811 152.364 8.21583 151.812 8.21583H149.812C149.26 8.21583 148.812 7.76811 148.812 7.21582Z" fill="#CCCCCC"/>
<path fill-rule="evenodd" clip-rule="evenodd" d="M65.4758 0.879883C73.2075 0.879883 79.476 7.1479 79.476 14.8799C79.476 22.6119 73.2075 28.8799 65.4758 28.8799C57.7438 28.8799 51.4758 22.6119 51.4758 14.8799C51.4758 7.1479 57.7438 0.879883 65.4758 0.879883ZM64.9698 1.9275C63.3726 2.15227 61.8518 3.43564 60.6712 5.58206C60.3288 6.20466 60.0198 6.8925 59.7506 7.63519C61.3558 7.2318 63.1192 6.99398 64.9698 6.95719V1.9275ZM58.5673 7.97144C58.9022 6.92059 59.3118 5.95376 59.7845 5.09434C60.3697 4.0303 61.0642 3.11145 61.8467 2.40572C57.5915 3.64154 54.2375 6.99564 53.0016 11.2509C53.7074 10.4683 54.6262 9.7738 55.6902 9.1886C56.5497 8.71589 57.5165 8.30625 58.5673 7.97144ZM58.2311 9.15465C57.8277 10.7599 57.5899 12.5233 57.5531 14.3739H52.5234C52.7481 12.7767 54.0315 11.2558 56.178 10.0754C56.8006 9.73292 57.4884 9.42394 58.2311 9.15465ZM58.5654 14.3739C58.6071 12.3543 58.8979 10.4583 59.379 8.78302C61.0542 8.30198 62.9502 8.0112 64.9698 7.96941V10.1554C64.2164 12.0842 62.6797 13.6207 60.7509 14.3739H58.5654ZM57.5531 15.3859H52.5234C52.7481 16.9831 54.0315 18.5039 56.178 19.6844C56.8006 20.0268 57.4884 20.3358 58.2311 20.6051C57.8277 18.9999 57.5899 17.2365 57.5531 15.3859ZM59.379 20.9767C58.8979 19.3015 58.6071 17.4055 58.5654 15.3859H60.7509C62.6797 16.139 64.2164 17.6755 64.9698 19.6043V21.7904C62.9502 21.7486 61.0542 21.4578 59.379 20.9767ZM58.5673 21.7883C57.5165 21.4535 56.5497 21.0439 55.6902 20.5712C54.6262 19.986 53.7074 19.2914 53.0016 18.5089C54.2375 22.7641 57.5915 26.1182 61.8467 27.354C61.0642 26.6483 60.3697 25.7295 59.7845 24.6654C59.3118 23.806 58.9022 22.8392 58.5673 21.7883ZM64.9698 27.8323C63.3726 27.6075 61.8518 26.3241 60.6712 24.1777C60.3288 23.5551 60.0198 22.8672 59.7506 22.1246C61.3558 22.5279 63.1192 22.7658 64.9698 22.8026V27.8323ZM69.1048 27.354C69.8874 26.6483 70.5818 25.7295 71.167 24.6654C71.6395 23.806 72.0497 22.8392 72.3843 21.7883C73.435 21.4535 74.4017 21.0439 75.2613 20.5712C76.3253 19.986 77.2444 19.2914 77.95 18.5089C76.7138 22.7641 73.3601 26.1182 69.1048 27.354ZM71.2013 22.1246C70.9318 22.8672 70.6224 23.5551 70.2801 24.1777C69.0998 26.3241 67.579 27.6075 65.9818 27.8323V22.8026C67.8324 22.7658 69.5957 22.5279 71.2013 22.1246ZM72.7203 20.6051C73.463 20.3358 74.1511 20.0268 74.7734 19.6844C76.9203 18.5039 78.2034 16.9831 78.4281 15.3859H73.3986C73.3615 17.2365 73.1235 18.9999 72.7203 20.6051ZM72.3864 15.3859C72.3444 17.4055 72.0539 19.3015 71.5723 20.9767C69.8974 21.4578 68.0014 21.7486 65.9818 21.7904V19.6059C66.735 17.6765 68.272 16.1393 70.2013 15.3859H72.3864ZM73.3986 14.3739H78.4281C78.2034 12.7767 76.9203 11.2558 74.7734 10.0754C74.1511 9.73292 73.463 9.42394 72.7203 9.15465C73.1235 10.7599 73.3615 12.5233 73.3986 14.3739ZM71.5723 8.78302C72.0539 10.4583 72.3444 12.3543 72.3864 14.3739H70.2014C68.272 13.6205 66.735 12.0833 65.9818 10.1538V7.96941C68.0014 8.0112 69.8974 8.30198 71.5723 8.78302ZM72.3843 7.97144C73.435 8.30625 74.4017 8.71589 75.2613 9.1886C76.3253 9.7738 77.2444 10.4683 77.95 11.2509C76.7138 6.99564 73.3601 3.64154 69.1048 2.40572C69.8874 3.11145 70.5818 4.0303 71.167 5.09434C71.6395 5.95376 72.0497 6.92059 72.3843 7.97144ZM65.9818 1.9275C67.579 2.15227 69.0998 3.43564 70.2801 5.58206C70.6224 6.20467 70.9318 6.8925 71.2013 7.63519C69.5957 7.2318 67.8324 6.99398 65.9818 6.95719V1.9275Z" fill="#CCCCCC"/>
</g>
<defs>
<clipPath id="clip0_1_1827">
<rect width="152.6" height="28" fill="white" transform="translate(0.218018 0.879883)"/>
</clipPath>
</defs>
</svg>
