<svg width="119" height="29" viewBox="0 0 119 29" fill="none" xmlns="http://www.w3.org/2000/svg">
<g clip-path="url(#clip0_1_1839)">
<path d="M57.115 0.879883C56.4591 3.76848 56.2002 4.90878 52.2869 5.26541C56.2002 4.90878 55.9413 6.04908 55.2854 8.93772C55.9374 6.06625 56.2002 4.90878 60.052 4.55775C56.2002 4.90878 56.463 3.75132 57.115 0.879883Z" fill="#CCCCCC"/>
<path d="M58.8067 8.54376C57.7063 9.23844 56.3702 9.40357 55.0778 9.55582C53.662 9.72256 52.2605 9.89539 50.8752 10.0738C51.2421 8.45913 51.413 7.80485 53.6062 7.60498C51.39 7.80694 51.5412 7.14099 51.9163 5.48885C51.5389 7.15086 51.39 7.80695 49.1384 8.01211C51.3667 7.80907 51.2438 8.44954 50.8752 10.0738C46.7394 10.6066 42.7467 11.1896 38.9431 11.8107C43.35 11.2733 49.4752 10.7498 54.732 10.3005C56.4385 10.1547 58.7276 9.97435 59.2139 11.6165C59.3678 12.1361 59.3704 12.7763 59.2775 13.5411H56.9515L55.0314 22.5741H60.1414L62.0615 13.5411H59.4685C59.8653 12.3339 60.361 11.3921 61.1734 10.6659C62.2077 9.7416 63.6698 9.54812 65.0533 9.4483C93.1716 7.41955 115.31 8.90202 115.674 13.038C115.778 14.2156 114.106 15.4901 111.014 16.778V16.7827L111.003 16.7869V16.778C112.149 16.2934 114.455 15.0923 114.596 13.5411H109.701L107.767 18.0094C107.765 18.0174 107.759 18.0255 107.749 18.0335H107.736L107.742 18.0094C107.733 17.5116 107.72 17.0138 107.702 16.516C107.693 16.0181 107.683 15.5243 107.672 15.0345C107.663 14.5367 107.65 14.0389 107.633 13.5411H101.07L99.1496 22.5741H103.644L104.701 17.5999L104.704 17.5879H104.716C104.718 17.5879 104.72 17.5881 104.722 17.5886C104.724 17.5896 104.726 17.5918 104.726 17.5952C104.726 17.5961 104.726 17.5971 104.726 17.5983L104.726 17.5999C104.755 18.4269 104.781 19.254 104.802 20.081C104.823 20.9081 104.848 21.7391 104.876 22.5741H108.015L110.287 17.5638L110.289 17.5518H110.302C110.307 17.5518 110.31 17.5532 110.311 17.556C110.312 17.5565 110.312 17.5571 110.312 17.5577V17.5587C110.312 17.5602 110.312 17.5619 110.312 17.5638L109.246 22.5741H113.987L115.682 14.6004C117.406 13.5517 118.288 12.5378 118.185 11.5962C117.694 7.07912 94.713 5.81314 65.5446 8.4634C65.4896 8.46844 65.4341 8.47355 65.3781 8.47873L65.3706 8.47943C63.9966 8.60655 62.3466 8.75915 61.6473 7.59998C60.9758 6.48684 61.4043 4.59953 62.0201 1.8877C61.2648 5.21378 60.7935 7.28967 58.8067 8.54376Z" fill="#CCCCCC"/>
<path fill-rule="evenodd" clip-rule="evenodd" d="M39.5046 13.7067C38.6275 13.3534 37.4583 13.1768 35.9972 13.1768C35.2995 13.1768 34.6498 13.2209 34.0481 13.3093C33.4547 13.3975 32.9062 13.5261 32.4024 13.6947C31.8987 13.8633 31.4415 14.064 31.0308 14.2969C30.63 14.5217 30.2676 14.7786 29.9435 15.0677C29.6211 15.3487 29.3387 15.6538 29.0963 15.9831C28.8639 16.3042 28.6691 16.6415 28.5118 16.9948C28.3646 17.34 28.2517 17.6974 28.1732 18.0667C28.0776 18.5164 28.0388 18.9499 28.0568 19.3675C28.0765 19.777 28.1505 20.1624 28.2789 20.5237C28.4173 20.877 28.6117 21.1982 28.8622 21.4872C29.1209 21.7763 29.4374 22.0252 29.8116 22.234C30.1876 22.4347 30.6223 22.5913 31.1155 22.7037C31.617 22.8161 32.1796 22.8723 32.8035 22.8723C33.0908 22.8723 33.3397 22.8603 33.55 22.8362C33.7668 22.8201 33.9903 22.792 34.2205 22.7518C34.4525 22.2782 34.6854 21.8004 34.9191 21.3186C35.1628 20.8288 35.4016 20.343 35.6352 19.8613C35.7019 19.7239 35.7685 19.5869 35.835 19.4502C35.8968 19.3232 35.9586 19.1963 36.0202 19.0698C36.125 18.8551 36.2295 18.6412 36.3339 18.428L35.4533 22.5712H40.6741L41.5548 18.428H36.3339L41.9144 17.1995C41.9452 16.4367 41.7701 15.7542 41.3892 15.152C41.0099 14.5418 40.3817 14.06 39.5046 13.7067ZM36.3339 18.428C36.1997 18.5966 36.0072 18.7291 35.7569 18.8255C35.5083 18.9138 35.1747 18.958 34.756 18.958C34.4851 18.958 34.2572 18.9298 34.0721 18.8736C33.8871 18.8174 33.7432 18.7412 33.6405 18.6448C33.5379 18.5485 33.4698 18.444 33.4362 18.3317C33.4043 18.2112 33.402 18.0868 33.4293 17.9583C33.4669 17.7816 33.5471 17.6171 33.6698 17.4645C33.8024 17.3039 33.9907 17.1714 34.2345 17.067C34.4865 16.9626 34.8054 16.9105 35.1912 16.9105C35.6016 16.9105 35.9164 16.9747 36.1353 17.1031C36.3543 17.2316 36.4809 17.4083 36.5152 17.6331C36.5495 17.8579 36.4891 18.1229 36.3339 18.428Z" fill="#CCCCCC"/>
<path d="M50.7342 13.201C50.4603 13.1848 50.1748 13.1768 49.8778 13.1768C49.1227 13.1768 48.4171 13.233 47.7611 13.3454C47.1151 13.4498 46.5194 13.6063 45.9743 13.8151C45.4309 14.0158 44.9397 14.2607 44.5006 14.5498C44.0715 14.8309 43.6914 15.152 43.36 15.5134C43.037 15.8746 42.7646 16.2681 42.5427 16.6936C42.3292 17.1192 42.172 17.5688 42.0713 18.0426C42.0618 18.0871 42.0529 18.1316 42.0447 18.1759C47.8889 18.0561 49.2919 16.6324 50.7342 13.201Z" fill="#CCCCCC"/>
<path d="M42.0413 18.1807C41.9821 18.4966 41.952 18.8096 41.9509 19.1193C41.9579 19.4727 42.0094 19.8098 42.1053 20.131C42.2094 20.4522 42.358 20.7573 42.551 21.0464C42.754 21.3274 43.0072 21.5843 43.3106 21.8172C43.6223 22.0501 43.9942 22.2508 44.4263 22.4194C44.8601 22.58 45.3548 22.7045 45.9107 22.7928C46.2517 22.8512 46.6177 22.8919 47.0085 22.9149C48.1969 19.4859 47.8753 18.0919 42.0413 18.1807Z" fill="#CCCCCC"/>
<path d="M47.0525 22.9138C47.2931 22.9271 47.543 22.9338 47.8022 22.9338C48.779 22.9338 49.6557 22.8454 50.432 22.6688C51.2148 22.5002 51.9054 22.2633 52.5039 21.9582C53.1041 21.6451 53.6159 21.2837 54.0395 20.8742C54.4648 20.4567 54.8058 20.0111 55.0625 19.5374C55.3208 19.0556 55.5046 18.5577 55.6138 18.0438C55.6216 18.0072 55.629 17.9708 55.636 17.9346C49.886 18.0532 48.4878 19.4966 47.0525 22.9138Z" fill="#CCCCCC"/>
<path d="M55.6322 17.9378C49.8999 18.0244 49.592 16.6138 50.7714 13.208C51.8711 13.2765 52.783 13.4764 53.5068 13.8075C54.4195 14.225 55.0486 14.7991 55.394 15.5298C55.726 16.2322 55.8054 17.035 55.6322 17.9378Z" fill="#CCCCCC"/>
<path fill-rule="evenodd" clip-rule="evenodd" d="M82.0644 17.1448L87.0512 16.9225C87.2955 16.3524 87.3473 15.8385 87.2066 15.3808C87.0659 14.9232 86.7558 14.5297 86.2756 14.2005C85.8038 13.8713 85.1843 13.6184 84.4171 13.4417C83.659 13.2651 82.7742 13.1768 81.7648 13.1768C81.0508 13.1768 80.3557 13.2209 79.6802 13.3093C79.0131 13.3975 78.3866 13.5261 77.8007 13.6947C77.2232 13.8633 76.7017 14.076 76.2369 14.333C75.7812 14.5819 75.4074 14.875 75.1141 15.2122C74.8222 15.5414 74.6332 15.9108 74.5457 16.3203C74.4638 16.7057 74.4883 17.055 74.6185 17.3681C74.7508 17.6732 75.0273 17.9382 75.4473 18.1631C75.8673 18.3878 76.4658 18.5645 77.2428 18.693C77.7573 18.7726 78.367 18.8258 79.0719 18.8528L73.9738 19.1868C73.7764 19.8452 73.7666 20.4113 73.9451 20.885C74.132 21.3588 74.4799 21.7482 74.9895 22.0533C75.5012 22.3504 76.1522 22.5712 76.9418 22.7157C77.7321 22.8603 78.6281 22.9325 79.6298 22.9325C80.5328 22.9325 81.3882 22.8643 82.1974 22.7278C83.0129 22.5993 83.743 22.4066 84.3891 22.1496C85.0443 21.8847 85.577 21.5595 85.9879 21.1741C86.4079 20.7806 86.6718 20.331 86.7789 19.8251C86.8783 19.3594 86.8566 18.958 86.7152 18.6207C86.5752 18.2754 86.2819 17.9944 85.8353 17.7776C85.3908 17.5528 84.765 17.3882 83.9579 17.2838C83.421 17.2144 82.7896 17.168 82.0644 17.1448ZM81.9237 17.1406C81.601 17.1317 81.2594 17.1273 80.9003 17.1273H80.593C80.3711 17.1273 80.1933 17.1152 80.0582 17.0911C79.9322 17.067 79.8426 17.0269 79.7887 16.9707C79.7369 16.9064 79.7208 16.8261 79.7411 16.7298C79.7586 16.6495 79.7992 16.5732 79.8636 16.5009C79.9364 16.4287 80.0232 16.3685 80.124 16.3203C80.2346 16.2641 80.3578 16.2239 80.4943 16.1998C80.6322 16.1677 80.7834 16.1517 80.9479 16.1517C81.2104 16.1517 81.4365 16.1878 81.6269 16.26C81.8264 16.3243 81.9594 16.4327 82.0252 16.5853C82.0924 16.7276 82.0581 16.9127 81.9237 17.1406ZM79.2945 18.8604C79.1874 19.0911 79.1643 19.2843 79.2266 19.4397C79.2994 19.6003 79.438 19.7208 79.6424 19.8011C79.8475 19.8814 80.0848 19.9215 80.3557 19.9215C80.5202 19.9215 80.67 19.9094 80.8065 19.8853C80.9514 19.8613 81.0823 19.8251 81.1992 19.777C81.3161 19.7288 81.4113 19.6686 81.4841 19.5963C81.5583 19.516 81.6059 19.4277 81.6262 19.3313C81.6675 19.1386 81.5912 19.0141 81.398 18.958C81.2132 18.9018 80.9276 18.8736 80.5419 18.8736H80.2339C79.9049 18.8736 79.592 18.8692 79.2945 18.8604Z" fill="#CCCCCC"/>
<path d="M93.6204 13.5439H88.5104L87.2994 19.2408C87.1958 19.7306 87.2119 20.1762 87.3477 20.5778C87.4863 20.9712 87.7166 21.3164 88.0393 21.6135C88.3718 21.9026 88.7708 22.1475 89.2377 22.3482C89.7116 22.549 90.2303 22.6975 90.7924 22.7938C91.3629 22.8902 91.9481 22.9384 92.5473 22.9384C93.3026 22.9384 94.0537 22.8621 94.7999 22.7095C95.5545 22.557 96.2517 22.3281 96.8915 22.023C97.5327 21.7099 98.0703 21.3244 98.5043 20.8668C98.9474 20.4011 99.2351 19.8591 99.3667 19.2408L100.578 13.5439H95.4677L94.4562 18.3014C94.4072 18.5342 94.2749 18.7109 94.0607 18.8313C93.8465 18.9517 93.6197 19.012 93.3817 19.012C93.2669 19.012 93.1556 18.9959 93.0471 18.9638C92.9477 18.9317 92.8581 18.8875 92.7797 18.8313C92.7118 18.7671 92.6579 18.6908 92.6194 18.6025C92.5886 18.5142 92.5865 18.4098 92.6117 18.2893L93.6204 13.5439Z" fill="#CCCCCC"/>
<path fill-rule="evenodd" clip-rule="evenodd" d="M70.3449 13.5439C71.1081 13.5439 71.7514 13.6483 72.2729 13.8571C72.8049 14.0578 73.2179 14.3348 73.5126 14.6882C73.8164 15.0334 74.0166 15.4268 74.1111 15.8684C74.2063 16.3101 74.2035 16.7677 74.1027 17.2415C73.9949 17.7473 73.794 18.2291 73.5 18.6868C73.2158 19.1365 72.8427 19.5379 72.3821 19.8912C71.9292 20.2445 71.3972 20.5255 70.7867 20.7343C70.1776 20.935 69.4995 21.0354 68.7526 21.0354H66.1052L66.0904 21.0475H66.0781L66.0755 21.0595L65.7529 22.577H60.6306L62.5506 13.5439H70.3449ZM67.7936 18.4218C68.0399 18.4218 68.2536 18.3816 68.4348 18.3014C68.626 18.213 68.7763 18.1047 68.8857 17.9762C68.9968 17.8397 69.0669 17.7032 69.0959 17.5667C69.1266 17.4222 69.1137 17.2896 69.0572 17.1692C69.0025 17.0407 68.9015 16.9364 68.7544 16.8561C68.6073 16.7758 68.4065 16.7357 68.152 16.7357H67.0192C67.011 16.7357 67.0019 16.7397 66.992 16.7477L66.9894 16.7597L66.6387 18.4098C66.6469 18.4098 66.6502 18.4138 66.6484 18.4218H67.7936Z" fill="#CCCCCC"/>
<path fill-rule="evenodd" clip-rule="evenodd" d="M9.06608 19.0361L9.07119 19.012L10.2335 13.5439H5.12347L3.47805 21.285C1.65647 22.3653 0.720703 23.41 0.826144 24.3783C1.35675 29.251 28.0583 30.3405 60.4657 26.8117C66.6061 26.143 72.5107 25.3566 78.0449 24.4878C75.1119 24.7502 71.9871 25.0157 68.7843 25.2878L68.7805 25.2881L68.7745 25.2886L68.7705 25.2889L68.7664 25.2892L68.7578 25.29C65.9443 25.529 63.0706 25.7731 60.213 26.0248C29.1927 28.7574 3.72888 27.3747 3.33788 22.9365C3.23475 21.7655 4.88707 20.4989 7.94545 19.2184C5.76622 20.1773 4.83623 21.4316 4.57518 22.577H13.1402L13.8929 19.0361H9.06608ZM7.79291 19.2656C7.74349 19.2852 7.69436 19.3047 7.64557 19.3243C7.82414 19.2543 8.006 19.1841 8.19087 19.1139C8.21985 19.1019 8.24904 19.09 8.27837 19.0782C8.19514 19.1096 8.11275 19.141 8.0312 19.1725C7.98836 19.189 7.94573 19.2055 7.90331 19.2221C7.86635 19.2366 7.82953 19.2511 7.79291 19.2656Z" fill="#CCCCCC"/>
<path d="M23.0467 13.201C22.7728 13.1848 22.4874 13.1768 22.1904 13.1768C21.4352 13.1768 20.7296 13.233 20.0736 13.3454C19.4276 13.4498 18.832 13.6063 18.2868 13.8151C17.7434 14.0158 17.2522 14.2607 16.8132 14.5498C16.384 14.8309 16.0039 15.152 15.6725 15.5134C15.3495 15.8746 15.0771 16.2681 14.8552 16.6936C14.6417 17.1192 14.4845 17.5688 14.3838 18.0426C14.3789 18.0656 14.3743 18.0884 14.3696 18.1113C14.3654 18.1329 14.3612 18.1545 14.3572 18.1759C20.2015 18.0561 21.6044 16.6324 23.0467 13.201Z" fill="#CCCCCC"/>
<path d="M14.3538 18.1807C14.2946 18.4966 14.2645 18.8096 14.2634 19.1193C14.2704 19.4727 14.3219 19.8098 14.4178 20.131C14.5219 20.4522 14.6705 20.7573 14.8635 21.0464C15.0665 21.3274 15.3197 21.5843 15.6231 21.8172C15.9348 22.0501 16.3067 22.2508 16.7388 22.4194C17.1726 22.58 17.6674 22.7045 18.2232 22.7928C18.5642 22.8512 18.9302 22.8919 19.321 22.9149C20.5094 19.4859 20.1878 18.0919 14.3538 18.1807Z" fill="#CCCCCC"/>
<path d="M19.365 22.9138C19.6056 22.9271 19.8555 22.9338 20.1147 22.9338C21.0915 22.9338 21.9682 22.8454 22.7445 22.6688C23.5273 22.5002 24.2179 22.2633 24.8165 21.9582C25.4166 21.6451 25.9284 21.2837 26.352 20.8742C26.7773 20.4567 27.1183 20.0111 27.3749 19.5374C27.6333 19.0556 27.8171 18.5577 27.9263 18.0438C27.9342 18.0072 27.9415 17.9708 27.9485 17.9346C22.1985 18.0532 20.8003 19.4966 19.365 22.9138Z" fill="#CCCCCC"/>
<path d="M27.9524 17.9378C22.2201 18.0244 21.9123 16.6138 23.0918 13.208C24.1915 13.2765 25.1032 13.4764 25.8271 13.8075C26.7398 14.225 27.3688 14.7991 27.7143 15.5298C28.0464 16.2322 28.1257 17.035 27.9524 17.9378Z" fill="#CCCCCC"/>
<path d="M116.057 22.5776C116.513 22.5776 116.883 22.2081 116.883 21.7522C116.883 21.2964 116.513 20.9268 116.057 20.9268C115.601 20.9268 115.232 21.2964 115.232 21.7522C115.232 22.2081 115.601 22.5776 116.057 22.5776Z" fill="#CCCCCC"/>
</g>
<defs>
<clipPath id="clip0_1_1839">
<rect width="117.6" height="28" fill="white" transform="translate(0.818115 0.879883)"/>
</clipPath>
</defs>
</svg>
