<svg width="43" height="42" viewBox="0 0 43 42" fill="none" xmlns="http://www.w3.org/2000/svg">
<g clip-path="url(#clip0_1_1795)">
<path d="M13.1 23.8H11.7C11.7 24.1713 11.8475 24.5274 12.1101 24.7899C12.3726 25.0525 12.7287 25.2 13.1 25.2V23.8ZM24.3 23.8V25.2C24.6713 25.2 25.0274 25.0525 25.2899 24.7899C25.5525 24.5274 25.7 24.1713 25.7 23.8H24.3ZM24.3 16.8H25.7C25.7003 16.616 25.6644 16.4338 25.5942 16.2637C25.5241 16.0936 25.4211 15.9391 25.2912 15.8088L24.3 16.8ZM18.7 11.2L19.6912 10.2088C19.5612 10.0784 19.4067 9.97498 19.2366 9.9044C19.0665 9.83383 18.8841 9.7975 18.7 9.7975C18.5159 9.7975 18.3335 9.83383 18.1634 9.9044C17.9933 9.97498 17.8388 10.0784 17.7088 10.2088L18.7 11.2ZM13.1 16.8L12.1088 15.8088C11.9789 15.9391 11.8759 16.0936 11.8058 16.2637C11.7356 16.4338 11.6997 16.616 11.7 16.8H13.1ZM42.0912 39.6088L30.8912 28.4088L28.9088 30.3912L40.1088 41.5912L42.0912 39.6088ZM18.7 33.6C14.6157 33.6 10.6986 31.9775 7.81056 29.0894C4.9225 26.2014 3.3 22.2843 3.3 18.2H0.5C0.5 23.0269 2.41749 27.6562 5.83066 31.0693C9.24382 34.4825 13.8731 36.4 18.7 36.4V33.6ZM34.1 18.2C34.1 22.2843 32.4775 26.2014 29.5894 29.0894C26.7014 31.9775 22.7843 33.6 18.7 33.6V36.4C23.5269 36.4 28.1562 34.4825 31.5693 31.0693C34.9825 27.6562 36.9 23.0269 36.9 18.2H34.1ZM18.7 2.8C22.7843 2.8 26.7014 4.4225 29.5894 7.31056C32.4775 10.1986 34.1 14.1157 34.1 18.2H36.9C36.9 13.3731 34.9825 8.74382 31.5693 5.33066C28.1562 1.91749 23.5269 0 18.7 0V2.8ZM18.7 0C13.8731 0 9.24382 1.91749 5.83066 5.33066C2.41749 8.74382 0.5 13.3731 0.5 18.2H3.3C3.3 14.1157 4.9225 10.1986 7.81056 7.31056C10.6986 4.4225 14.6157 2.8 18.7 2.8V0ZM13.1 25.2H24.3V22.4H13.1V25.2ZM25.7 23.8V16.8H22.9V23.8H25.7ZM25.2912 15.8088L19.6912 10.2088L17.7088 12.1912L23.3088 17.7912L25.2912 15.8088ZM17.7088 10.2088L12.1088 15.8088L14.0912 17.7912L19.6912 12.1912L17.7088 10.2088ZM11.7 16.8V23.8H14.5V16.8H11.7Z" fill="#CEA44E"/>
</g>
<defs>
<clipPath id="clip0_1_1795">
<rect width="42" height="42" fill="white" transform="translate(0.5)"/>
</clipPath>
</defs>
</svg>
